<svg width="14" height="14" viewBox="0 0 14 14" fill="none" xmlns="http://www.w3.org/2000/svg">
<path d="M9.40627 2.62496C9.40552 2.79894 9.33684 2.96574 9.21487 3.0898L5.30471 6.99996L9.21487 10.9101C9.33815 11.0334 9.40741 11.2006 9.40741 11.375C9.40741 11.5493 9.33815 11.7165 9.21487 11.8398C9.09158 11.9631 8.92437 12.0323 8.75002 12.0323C8.57567 12.0323 8.40846 11.9631 8.28518 11.8398L3.91018 7.4648C3.849 7.40384 3.80046 7.33139 3.76734 7.25162C3.73421 7.17185 3.71716 7.08633 3.71716 6.99996C3.71716 6.91359 3.73421 6.82807 3.76734 6.7483C3.80046 6.66853 3.849 6.59608 3.91018 6.53512L8.28518 2.16012C8.34615 2.09894 8.41859 2.05039 8.49836 2.01727C8.57813 1.98415 8.66365 1.9671 8.75002 1.9671C8.8364 1.9671 8.92192 1.98415 9.00169 2.01727C9.08145 2.05039 9.1539 2.09894 9.21487 2.16012C9.33684 2.28418 9.40552 2.45098 9.40627 2.62496Z" fill="black"/>
</svg>
