<svg width="14" height="14" viewBox="0 0 14 14" fill="none" xmlns="http://www.w3.org/2000/svg">
<path d="M10.9102 2.16012C10.9711 2.09894 11.0436 2.0504 11.1234 2.01727C11.2031 1.98415 11.2887 1.9671 11.375 1.9671C11.4614 1.9671 11.5469 1.98415 11.6267 2.01727C11.7065 2.0504 11.7789 2.09894 11.8399 2.16012C11.9621 2.28396 12.0306 2.45096 12.0306 2.62496C12.0306 2.79897 11.9621 2.96597 11.8399 3.08981L7.92971 6.99996L11.8399 10.9101C11.9632 11.0334 12.0324 11.2006 12.0324 11.375C12.0324 11.5493 11.9632 11.7165 11.8399 11.8398C11.7166 11.9631 11.5494 12.0323 11.375 12.0323C11.2007 12.0323 11.0335 11.9631 10.9102 11.8398L6.53518 7.4648C6.474 7.40384 6.42546 7.33139 6.39233 7.25162C6.35921 7.17185 6.34216 7.08633 6.34216 6.99996C6.34216 6.91359 6.35921 6.82807 6.39233 6.7483C6.42546 6.66853 6.474 6.59609 6.53518 6.53512L10.9102 2.16012ZM7.46487 10.9101L3.55471 6.99996L7.46487 3.08981C7.5871 2.96597 7.65564 2.79897 7.65564 2.62496C7.65564 2.45096 7.5871 2.28396 7.46487 2.16012C7.4039 2.09894 7.33145 2.0504 7.25169 2.01727C7.17192 1.98415 7.0864 1.9671 7.00002 1.9671C6.91365 1.9671 6.82813 1.98415 6.74836 2.01727C6.66859 2.0504 6.59615 2.09894 6.53518 2.16012L2.16018 6.53512C2.099 6.59609 2.05046 6.66853 2.01734 6.7483C1.98421 6.82807 1.96716 6.91359 1.96716 6.99996C1.96716 7.08633 1.98421 7.17185 2.01734 7.25162C2.05046 7.33139 2.099 7.40384 2.16018 7.4648L6.53518 11.8398C6.65846 11.9631 6.82567 12.0323 7.00002 12.0323C7.17437 12.0323 7.34158 11.9631 7.46487 11.8398C7.58815 11.7165 7.65741 11.5493 7.65741 11.375C7.65741 11.2006 7.58815 11.0334 7.46487 10.9101Z" fill="black"/>
</svg>
