<svg width="14" height="14" viewBox="0 0 14 14" fill="none" xmlns="http://www.w3.org/2000/svg">
<path d="M4.59373 11.375C4.59448 11.2011 4.66316 11.0343 4.78513 10.9102L8.69529 7.00004L4.78513 3.08988C4.66185 2.9666 4.59259 2.79939 4.59259 2.62504C4.59259 2.45069 4.66185 2.28348 4.78513 2.1602C4.90842 2.03691 5.07563 1.96765 5.24998 1.96765C5.42433 1.96765 5.59154 2.03691 5.71482 2.1602L10.0898 6.5352C10.151 6.59616 10.1995 6.66861 10.2327 6.74838C10.2658 6.82815 10.2828 6.91367 10.2828 7.00004C10.2828 7.08641 10.2658 7.17193 10.2327 7.2517C10.1995 7.33147 10.151 7.40392 10.0898 7.46488L5.71482 11.8399C5.65385 11.9011 5.58141 11.9496 5.50164 11.9827C5.42187 12.0159 5.33635 12.0329 5.24998 12.0329C5.1636 12.0329 5.07808 12.0159 4.99831 11.9827C4.91855 11.9496 4.8461 11.9011 4.78513 11.8399C4.66316 11.7158 4.59448 11.549 4.59373 11.375Z" fill="black"/>
</svg>
