<svg width="14" height="14" viewBox="0 0 14 14" fill="none" xmlns="http://www.w3.org/2000/svg">
<path d="M3.08994 11.8399C3.02897 11.9011 2.95653 11.9496 2.87676 11.9827C2.79699 12.0159 2.71147 12.0329 2.6251 12.0329C2.53873 12.0329 2.45321 12.0159 2.37344 11.9827C2.29367 11.9496 2.22122 11.9011 2.16026 11.8399C2.03802 11.716 1.96949 11.549 1.96949 11.375C1.96949 11.201 2.03802 11.034 2.16026 10.9102L6.07041 7.00004L2.16026 3.08988C2.03697 2.9666 1.96771 2.79939 1.96771 2.62504C1.96771 2.45069 2.03697 2.28348 2.16026 2.1602C2.28354 2.03691 2.45075 1.96765 2.6251 1.96765C2.79945 1.96765 2.96666 2.03691 3.08994 2.1602L7.46494 6.5352C7.52612 6.59616 7.57467 6.66861 7.60779 6.74838C7.64091 6.82815 7.65796 6.91367 7.65796 7.00004C7.65796 7.08641 7.64091 7.17193 7.60779 7.2517C7.57467 7.33147 7.52612 7.40391 7.46494 7.46488L3.08994 11.8399ZM6.53525 3.08988L10.4454 7.00004L6.53525 10.9102C6.41302 11.034 6.34448 11.201 6.34448 11.375C6.34448 11.549 6.41302 11.716 6.53525 11.8399C6.59622 11.9011 6.66867 11.9496 6.74844 11.9827C6.8282 12.0159 6.91373 12.0329 7.0001 12.0329C7.08647 12.0329 7.17199 12.0159 7.25176 11.9827C7.33153 11.9496 7.40397 11.9011 7.46494 11.8399L11.8399 7.46488C11.9011 7.40391 11.9497 7.33147 11.9828 7.2517C12.0159 7.17193 12.033 7.08641 12.033 7.00004C12.033 6.91367 12.0159 6.82815 11.9828 6.74838C11.9497 6.66861 11.9011 6.59616 11.8399 6.5352L7.46494 2.1602C7.34166 2.03691 7.17445 1.96765 7.0001 1.96765C6.82575 1.96765 6.65854 2.03691 6.53525 2.1602C6.41197 2.28348 6.34271 2.45069 6.34271 2.62504C6.34271 2.79939 6.41197 2.9666 6.53525 3.08988Z" fill="black"/>
</svg>
