<svg width="423" height="195" viewBox="0 0 423 195" fill="none" xmlns="http://www.w3.org/2000/svg">
<circle cx="378.205" cy="44.0322" r="44.0322" fill="#2656D1"/>
<path fill-rule="evenodd" clip-rule="evenodd" d="M352.515 109.814C333.711 102.956 319.565 86.4116 316.114 66.2186L296.02 148.537H294.591L272.431 57.7567H220.608L266.713 195H323.898L352.515 109.814ZM49.6792 12.0089V195H0V12.0089H49.6792ZM123.26 117.801V195H73.938V57.7567H120.758V83.8472H122.188C125.166 75.1504 130.408 68.3299 137.913 63.3858C145.478 58.4417 154.294 55.9697 164.361 55.9697C174.071 55.9697 182.5 58.2034 189.648 62.671C196.855 67.079 202.425 73.1548 206.356 80.8986C210.347 88.6424 212.313 97.4881 212.254 107.436V195H162.932V117.801C162.991 111.01 161.264 105.679 157.749 101.807C154.294 97.9349 149.469 95.999 143.274 95.999C139.224 95.999 135.68 96.8925 132.642 98.6795C129.663 100.407 127.37 102.909 125.762 106.185C124.153 109.402 123.319 113.273 123.26 117.801Z" fill="white"/>
</svg>
